<svg width="20" height="20" viewBox="0 0 20 20" fill="none" xmlns="http://www.w3.org/2000/svg">
  <path d="M14.167 2.5C14.3859 2.28113 14.6457 2.10752 14.9314 1.98906C15.217 1.87061 15.5229 1.80965 15.8317 1.80965C16.1405 1.80965 16.4463 1.87061 16.732 1.98906C17.0177 2.10752 17.2775 2.28113 17.4963 2.5C17.7152 2.71887 17.8888 2.97871 18.0073 3.26437C18.1257 3.55003 18.1867 3.85587 18.1867 4.16467C18.1867 4.47346 18.1257 4.7793 18.0073 5.06496C17.8888 5.35062 17.7152 5.61046 17.4963 5.82933L6.24967 17.076L1.66634 18.3327L2.92301 13.7493L14.167 2.5Z" stroke="#666666" stroke-width="1.5" stroke-linecap="round" stroke-linejoin="round"/>
</svg>

