<svg width="20" height="20" viewBox="0 0 20 20" fill="none" xmlns="http://www.w3.org/2000/svg">
<path d="M10.4485 0.355865C9.9799 -0.118622 9.2201 -0.118622 8.75147 0.355865L0.351472 8.86087C-0.117157 9.33535 -0.117157 10.1046 0.351472 10.5791C0.820101 11.0536 1.5799 11.0536 2.04853 10.5791L2.4 10.2233V18.225C2.4 18.896 2.93726 19.44 3.6 19.44H6C6.66274 19.44 7.2 18.896 7.2 18.225V15.795C7.2 15.124 7.73726 14.58 8.4 14.58H10.8C11.4627 14.58 12 15.124 12 15.795V18.225C12 18.896 12.5373 19.44 13.2 19.44H15.6C16.2627 19.44 16.8 18.896 16.8 18.225V10.2233L17.1515 10.5791C17.6201 11.0536 18.3799 11.0536 18.8485 10.5791C19.3172 10.1046 19.3172 9.33535 18.8485 8.86087L10.4485 0.355865Z" fill="#414141"/>
</svg>
