<svg width="20" height="19" viewBox="0 0 20 19" fill="none" xmlns="http://www.w3.org/2000/svg">
<path d="M0 2.43C0 1.08795 1.07452 0 2.4 0H10.8C12.1255 0 13.2 1.08795 13.2 2.43V7.29C13.2 8.63205 12.1255 9.72 10.8 9.72H8.4L4.8 13.365V9.72H2.4C1.07452 9.72 0 8.63205 0 7.29V2.43Z" fill="#6369DD"/>
<path d="M15.6 4.86V8.15C15.6 10.3591 13.8091 12.15 11.6 12.15H9.39411L7.27407 14.2965C7.60985 14.4775 7.9931 14.58 8.4 14.58H10.8L14.4 18.225V14.58H16.8C18.1255 14.58 19.2 13.4921 19.2 12.15V7.29C19.2 5.94795 18.1255 4.86 16.8 4.86H15.6Z" fill="#6369DD"/>
</svg>
