<svg width="20" height="20" viewBox="0 0 20 20" fill="none" xmlns="http://www.w3.org/2000/svg">
<path fill-rule="evenodd" clip-rule="evenodd" d="M19.2 9.72C19.2 15.0882 14.9019 19.44 9.6 19.44C4.29807 19.44 0 15.0882 0 9.72C0 4.35179 4.29807 0 9.6 0C14.9019 0 19.2 4.35179 19.2 9.72ZM12 6.075C12 7.41705 10.9255 8.505 9.6 8.505C8.27452 8.505 7.2 7.41705 7.2 6.075C7.2 4.73295 8.27452 3.645 9.6 3.645C10.9255 3.645 12 4.73295 12 6.075ZM9.59992 10.935C7.17887 10.935 5.09273 12.3869 4.14448 14.4776C5.46484 16.0283 7.41918 17.01 9.59998 17.01C11.7807 17.01 13.735 16.0284 15.0554 14.4777C14.1072 12.3869 12.021 10.935 9.59992 10.935Z" fill="#414141"/>
</svg>
