<svg width="23" height="19" viewBox="0 0 23 19" fill="none" xmlns="http://www.w3.org/2000/svg">
<path d="M1 18H3.1M3.1 18H9.4M3.1 18V9.10817C3.1 8.55233 3.1 8.27426 3.16822 8.01561C3.22868 7.7864 3.32868 7.56949 3.46299 7.37348C3.61454 7.1523 3.82517 6.96888 4.24741 6.60286L9.28908 2.2324C10.0718 1.55385 10.4632 1.21456 10.904 1.08541C11.2927 0.97153 11.7071 0.97153 12.0958 1.08541C12.5369 1.21465 12.9289 1.55427 13.7128 2.23384L18.7528 6.60286C19.175 6.96887 19.3857 7.1523 19.5373 7.37348C19.6716 7.56949 19.7708 7.7864 19.8313 8.01561C19.8995 8.27426 19.9 8.55233 19.9 9.10817V18M9.4 18H13.6M9.4 18V13.839C9.4 12.69 10.3402 11.7586 11.5 11.7586C12.6598 11.7586 13.6 12.69 13.6 13.839V18M13.6 18H19.9M19.9 18H22" stroke="white" stroke-width="2" stroke-linecap="round" stroke-linejoin="round"/>
</svg>
