<svg width="16" height="17" viewBox="0 0 16 17" fill="none" xmlns="http://www.w3.org/2000/svg">
<path d="M5.5 9.83333L10.5 12.5M10.5 4.5L5.5 7.16667M13 16.5C11.6193 16.5 10.5 15.3061 10.5 13.8333C10.5 12.3606 11.6193 11.1667 13 11.1667C14.3807 11.1667 15.5 12.3606 15.5 13.8333C15.5 15.3061 14.3807 16.5 13 16.5ZM3 11.1667C1.61929 11.1667 0.5 9.97276 0.5 8.5C0.5 7.02724 1.61929 5.83333 3 5.83333C4.38071 5.83333 5.5 7.02724 5.5 8.5C5.5 9.97276 4.38071 11.1667 3 11.1667ZM13 5.83333C11.6193 5.83333 10.5 4.63943 10.5 3.16667C10.5 1.69391 11.6193 0.5 13 0.5C14.3807 0.5 15.5 1.69391 15.5 3.16667C15.5 4.63943 14.3807 5.83333 13 5.83333Z" stroke="#FF6733" stroke-linecap="round" stroke-linejoin="round"/>
</svg>
