<svg width="92" height="88" viewBox="0 0 92 88" fill="none" xmlns="http://www.w3.org/2000/svg">
<path d="M41.2662 3.07987C42.9742 -1.02659 48.7914 -1.0266 50.4994 3.07987L59.5222 24.7732C60.2422 26.5044 61.8703 27.6872 63.7392 27.837L87.159 29.7146C91.5922 30.07 93.3899 35.6026 90.0122 38.4959L72.1688 53.7807C70.7449 55.0004 70.123 56.9143 70.558 58.7381L76.0095 81.5918C77.0414 85.9179 72.3352 89.3372 68.5397 87.0189L48.4891 74.7721C46.889 73.7948 44.8766 73.7948 43.2765 74.7721L23.226 87.0189C19.4305 89.3372 14.7242 85.9179 15.7561 81.5918L21.2076 58.7381C21.6426 56.9143 21.0208 55.0004 19.5968 53.7807L1.75343 38.4959C-1.62426 35.6026 0.17337 30.07 4.60664 29.7146L28.0264 27.837C29.8954 27.6872 31.5234 26.5044 32.2434 24.7732L41.2662 3.07987Z" fill="#DBDBDB"/>
</svg>
